<svg width="164" height="61" viewBox="0 0 164 61" fill="none" xmlns="http://www.w3.org/2000/svg">
<path d="M43.0466 59.3899H38.8844C36.3162 59.3899 35.6078 58.7648 35.6078 56.4986V51.341C35.6078 49.0749 36.3162 48.4497 38.8844 48.4497H43.2237C46.3232 48.4497 47.7401 47.1994 47.7401 44.0736V12.7376C47.7401 11.6436 47.3859 11.331 46.1461 11.331H41.8068C39.2386 11.331 38.5301 10.7058 38.5301 8.43963V3.6728C38.5301 1.4066 39.2386 0.781446 41.8068 0.781446H56.6844C59.2526 0.781446 59.961 1.4066 59.961 3.6728V42.1981C59.961 54.7794 55.7103 59.3899 43.0466 59.3899Z" fill="#21044E"/>
<path d="M100.464 42.1981C100.464 55.4046 96.2128 60.1714 83.372 60.1714C70.5312 60.1714 66.2804 55.4046 66.2804 42.1981V17.9733C66.2804 4.84497 70.5312 0 83.372 0C96.2128 0 100.464 4.84497 100.464 17.9733V42.1981ZM78.8556 44.855C78.8556 47.9808 80.2725 49.2311 83.372 49.2311C86.4715 49.2311 87.8884 47.9808 87.8884 44.855V15.7071C87.8884 12.2687 86.4715 10.9403 83.372 10.9403C80.2725 10.9403 78.8556 12.2687 78.8556 15.7071V44.855Z" fill="#21044E"/>
<path d="M119.86 47.1994C119.86 48.1371 120.215 48.4497 121.454 48.4497H132.524C135.092 48.4497 135.801 49.0749 135.801 51.341V56.4986C135.801 58.7648 135.092 59.3899 132.524 59.3899H110.916C108.348 59.3899 107.639 58.7648 107.639 56.4986V3.6728C107.639 1.4066 108.348 0.781446 110.916 0.781446H116.584C119.152 0.781446 119.86 1.4066 119.86 3.6728V47.1994Z" fill="#21044E"/>
<path d="M160.66 11.7217H155.169C153.929 11.7217 153.575 12.0343 153.575 13.1283V56.4986C153.575 58.7648 152.867 59.3899 150.298 59.3899H144.631C142.063 59.3899 141.354 58.7648 141.354 56.4986V13.1283C141.354 12.0343 141 11.7217 139.76 11.7217H134.27C131.701 11.7217 130.993 11.0965 130.993 8.83035V3.6728C130.993 1.4066 131.701 0.781446 134.27 0.781446H160.66C163.228 0.781446 163.936 1.4066 163.936 3.6728V8.83035C163.936 11.0965 163.228 11.7217 160.66 11.7217Z" fill="#21044E"/>
<path d="M25.1738 29.5257V17.3499C25.1738 16.2453 26.0693 15.3499 27.1738 15.3499H35.7355C37.0736 15.3499 38.0342 16.6383 37.6523 17.9207L35.5242 25.066C35.3332 25.7072 35.8136 26.3515 36.4826 26.3515H38.1211C39.6038 26.3515 40.571 27.9083 39.9141 29.2375L32.7438 43.7469C32.2751 44.6952 30.8473 44.3616 30.8473 43.3039V32.5257C30.8473 31.9735 30.3995 31.5257 29.8473 31.5257H27.1738C26.0693 31.5257 25.1738 30.6303 25.1738 29.5257Z" fill="#8B5CF6"/>
<path d="M24.7606 59.39H20.5984C7.93471 59.39 3.68396 54.7794 3.68396 42.1982V37.7276C3.68396 35.0867 2.28122 32.6444 0 31.3137C2.23083 30.3842 3.68396 28.2045 3.68396 25.7878V18.7815C3.68396 8.84036 11.8971 0.781494 21.8382 0.781494C24.4064 0.781494 25.1149 1.40665 25.1149 3.67285V8.43967C25.1149 10.7059 24.4064 11.331 21.8382 11.331H17.4989C16.2591 11.331 15.9049 11.6436 15.9049 12.7376V44.0736C15.9049 47.1994 17.3218 48.4497 20.4213 48.4497H24.7606C27.3288 48.4497 28.0373 49.0749 28.0373 51.3411V56.4986C28.0373 58.7648 27.3288 59.39 24.7606 59.39Z" fill="#EAE4F8"/>
</svg>
