<?xml version="1.0" encoding="UTF-8" standalone="no"?>
<!DOCTYPE svg PUBLIC "-//W3C//DTD SVG 1.1//EN" "http://www.w3.org/Graphics/SVG/1.1/DTD/svg11.dtd">
<svg width="100%" height="100%" viewBox="0 0 2652 1200" version="1.1" xmlns="http://www.w3.org/2000/svg" xmlns:xlink="http://www.w3.org/1999/xlink" xml:space="preserve" xmlns:serif="http://www.serif.com/" style="fill-rule:evenodd;clip-rule:evenodd;stroke-linejoin:round;stroke-miterlimit:2;">
    <g transform="matrix(1,0,0,1,-3605.11,0)">
        <g id="Logo-Full" serif:id="Logo Full" transform="matrix(2.58908,0,0,1.17188,3605.11,0)">
            <rect x="0" y="0" width="1024" height="1024" style="fill:none;"/>
            <g transform="matrix(451.343,0,0,997.173,99.7284,840.255)">
                <path d="M0.312,0.01C0.261,0.01 0.213,0.001 0.17,-0.017C0.126,-0.034 0.091,-0.06 0.065,-0.095C0.038,-0.13 0.024,-0.171 0.023,-0.22C0.023,-0.226 0.025,-0.231 0.029,-0.236C0.033,-0.24 0.038,-0.242 0.045,-0.242L0.225,-0.241C0.226,-0.241 0.169,-0.155 0.169,-0.155L0.327,-0.156L0.313,-0.061L0.472,-0.246L0.331,-0.246L0.462,-0.517C0.462,-0.517 0.253,-0.517 0.194,-0.517C0.164,-0.517 0.174,-0.555 0.173,-0.593C0.173,-0.63 0.168,-0.665 0.196,-0.665C0.604,-0.665 0.611,-0.68 0.61,-0.646C0.61,-0.596 0.607,-0.257 0.607,-0.257C0.607,-0.2 0.595,-0.152 0.57,-0.112C0.545,-0.072 0.511,-0.042 0.466,-0.021C0.421,-0 0.37,0.01 0.312,0.01Z" style="fill:white;fill-rule:nonzero;"/>
            </g>
            <g transform="matrix(1.37723,0,0,3.04279,-368.141,-579.564)">
                <g transform="matrix(0.85,0,0,0.85,82.229,70.4485)">
                    <text x="548.193px" y="469.657px" style="font-family:'Rubik-Bold', 'Rubik';font-weight:700;font-size:288px;fill:white;">o</text>
                </g>
                <text x="697.766px" y="469.657px" style="font-family:'Rubik-Bold', 'Rubik';font-weight:700;font-size:288px;fill:white;">lt</text>
            </g>
        </g>
    </g>
</svg>
